<?xml version="1.0" encoding="UTF-8" standalone="no"?>
<!-- Created with Inkscape (http://www.inkscape.org/) -->
<svg
   xmlns:dc="http://purl.org/dc/elements/1.1/"
   xmlns:cc="http://web.resource.org/cc/"
   xmlns:rdf="http://www.w3.org/1999/02/22-rdf-syntax-ns#"
   xmlns:svg="http://www.w3.org/2000/svg"
   xmlns="http://www.w3.org/2000/svg"
   xmlns:sodipodi="http://sodipodi.sourceforge.net/DTD/sodipodi-0.dtd"
   xmlns:inkscape="http://www.inkscape.org/namespaces/inkscape"
   width="1620"
   height="1080"
   id="svg1341"
   sodipodi:version="0.32"
   inkscape:version="0.44.1"
   sodipodi:docbase="/home/E21850"
   sodipodi:docname="lgpl-agpl-v3-logos.svg"
   version="1.0">
  <sodipodi:namedview
     id="base"
     pagecolor="#ffffff"
     bordercolor="#666666"
     borderopacity="1.0"
     inkscape:pageopacity="0.0"
     inkscape:pageshadow="2"
     inkscape:zoom="0.5054504"
     inkscape:cx="897.55388"
     inkscape:cy="619.99524"
     inkscape:document-units="px"
     inkscape:current-layer="layer1"
     inkscape:window-width="1278"
     inkscape:window-height="967"
     inkscape:window-x="229"
     inkscape:window-y="27"
     showguides="true"
     inkscape:guide-bbox="true"
     width="18in"
     height="12in"
     units="in"
     showborder="true">
    <sodipodi:guide
       orientation="horizontal"
       position="1885.3861"
       id="guide2344" />
    <sodipodi:guide
       orientation="horizontal"
       position="2033.8652"
       id="guide2346" />
    <sodipodi:guide
       orientation="vertical"
       position="-820.12302"
       id="guide3321" />
    <sodipodi:guide
       orientation="vertical"
       position="-118.58401"
       id="guide3323" />
    <sodipodi:guide
       orientation="horizontal"
       position="965.80899"
       id="guide5223" />
    <sodipodi:guide
       orientation="horizontal"
       position="830.01431"
       id="guide5235" />
  </sodipodi:namedview>
  <defs
     id="defs1343" />
  <metadata
     id="metadata1346">
    <rdf:RDF>
      <cc:Work
         rdf:about="">
        <dc:format>image/svg+xml</dc:format>
        <dc:type
           rdf:resource="http://purl.org/dc/dcmitype/StillImage" />
      </cc:Work>
    </rdf:RDF>
  </metadata>
  <g
     inkscape:label="Layer 1"
     id="layer1"
     inkscape:groupmode="layer">
    <g
       id="g2731"
       transform="matrix(5.086693,0,0,5.086693,-2354.836,-2292.621)"
       inkscape:export-xdpi="300"
       inkscape:export-ydpi="300">
      <path
         d="M 640.37466,585.37975 C 640.37466,585.37975 640.36816,585.37975 640.36816,585.37975 C 639.75071,585.37975 639.20564,585.58329 638.69333,585.99708 C 638.3124,586.29913 638.04974,586.70642 637.83959,587.1596 C 637.83959,587.1596 637.86584,587.1596 637.86584,587.1596 C 638.076,586.70642 638.33866,586.29913 638.71307,585.99708 C 639.22539,585.58329 639.77046,585.38626 640.37466,585.37975 z "
         id="path2733"
         style="fill:#bd0000;fill-opacity:1;fill-rule:evenodd;stroke:none;stroke-width:1pt;stroke-linecap:butt;stroke-linejoin:miter" />
      <path
         d="M 640.39441,585.37975 C 640.38779,585.37975 640.38117,585.37975 640.37466,585.37975 C 641.01174,585.38626 641.43205,585.60303 641.71446,586.06934 C 641.83923,586.26637 641.90498,586.56191 641.90498,586.93621 C 641.90498,587.00196 641.89185,587.08735 641.88523,587.1596 C 641.88523,587.1596 641.91148,587.1596 641.91148,587.1596 C 641.91148,587.08735 641.92461,587.00196 641.92461,586.93621 C 641.92461,586.56191 641.86548,586.26637 641.74071,586.06934 C 641.4583,585.59641 641.03149,585.37975 640.39441,585.37975 z "
         id="path2735"
         style="fill:#bd0000;fill-opacity:1;fill-rule:evenodd;stroke:none;stroke-width:1pt;stroke-linecap:butt;stroke-linejoin:miter" />
      <g
         transform="matrix(0.385154,0,0,0.385154,759.9478,896.7878)"
         id="g2737"
         style="fill:#008033;fill-opacity:1">
        <g
           transform="matrix(1.705222,0,0,1.705222,-769.6823,-728.9956)"
           id="g2739"
           style="fill:#008033;fill-opacity:1;fill-rule:evenodd;stroke:none;stroke-width:1pt;stroke-linecap:butt;stroke-linejoin:miter">
          <path
             d="M 0,36 C 0,36 7.46,36 7.46,36 C 7.46,36 10.81,22 10.81,22 C 10.81,22 22.93,22 22.93,22 C 22.93,22 24.49,16 24.49,16 C 24.49,16 12.32,16 12.32,16 C 12.32,16 14.34,7 14.34,7 C 14.34,7 27.29,7 27.29,7 C 27.29,7 28.85,0 28.85,0 C 28.85,0 8.4,0 8.4,0 C 8.4,0 0,36 0,36 z "
             id="path2741"
             style="fill:#008033;fill-opacity:1" />
        </g>
        <g
           transform="matrix(1.705222,0,0,1.705222,-725.4318,-711.9434)"
           id="g2743"
           style="fill:#008033;fill-opacity:1;fill-rule:evenodd;stroke:none;stroke-width:1pt;stroke-linecap:butt;stroke-linejoin:miter">
          <path
             d="M 7.51,26 C 7.51,26 9.75,16.6 9.75,16.6 C 10.93,11.51 13.42,7 18.13,7 C 18.55,7 18.96,7.21 19.27,7.26 C 19.27,7.26 21.09,0.05 21.09,0.05 C 20.67,0.05 20.21,0 19.69,0 C 16.22,0 13.31,2.44 11.37,5.94 C 11.37,5.94 11.17,5.94 11.17,5.94 C 11.46,4.23 11.71,2.61 11.9,1 C 11.9,1 5.47,1 5.47,1 C 5.1,3.08 4.53,7.15 3.66,10.82 C 3.66,10.82 0,26 0,26 C 0,26 7.51,26 7.51,26 z "
             id="path2745"
             style="fill:#008033;fill-opacity:1" />
        </g>
        <g
           transform="matrix(1.705222,0,0,1.705222,-690.253,-711.9434)"
           id="g2747"
           style="fill:#008033;fill-opacity:1;fill-rule:evenodd;stroke:none;stroke-width:1pt;stroke-linecap:butt;stroke-linejoin:miter">
          <path
             d="M 20.06,19.25 C 17.99,20.26 15.63,20 12.88,20 C 10.71,20 9.03,19.62 8.11,18.88 C 7.63,18.07 7.43,16.81 7.47,16 C 17.6,16.27 23.99,13.93 24.31,7.53 C 24.55,2.7 21.02,0 15.89,0 C 6.73,0 0.73,8.08 0.34,15.86 C 0,22.65 3.52,26 10.78,26 C 13.57,26 17.27,25.68 20.3,24.77 C 20.3,24.77 20.06,19.25 20.06,19.25 z M 17.32,7.53 C 17.2,9.91 14.26,10.05 8.47,10 C 9.1,7.91 11.22,6 14.69,6 C 16.4,6 17.38,6.65 17.32,7.53 z "
             id="path2749"
             style="fill:#008033;fill-opacity:1" />
        </g>
        <g
           transform="matrix(1.705222,0,0,1.705222,-645.0305,-711.9434)"
           id="g2751"
           style="fill:#008033;fill-opacity:1;fill-rule:evenodd;stroke:none;stroke-width:1pt;stroke-linecap:butt;stroke-linejoin:miter">
          <path
             d="M 20.05,19.25 C 17.98,20.26 15.62,20 12.88,20 C 10.7,20 9.03,19.62 8.11,18.88 C 7.63,18.07 7.42,16.81 7.46,16 C 17.6,16.27 23.98,13.93 24.31,7.53 C 24.55,2.7 21.02,0 15.89,0 C 6.72,0 0.72,8.08 0.33,15.86 C 0,22.65 3.52,26 10.77,26 C 13.57,26 17.27,25.68 20.3,24.77 C 20.3,24.77 20.05,19.25 20.05,19.25 z M 17.32,7.53 C 17.2,9.91 14.26,10.05 8.46,10 C 9.1,7.91 11.21,6 14.68,6 C 16.39,6 17.38,6.65 17.32,7.53 z "
             id="path2753"
             style="fill:#008033;fill-opacity:1" />
        </g>
        <g
           transform="matrix(1.705222,0,0,1.705222,-583.796,-711.9434)"
           id="g2755"
           style="fill:#008033;fill-opacity:1;fill-rule:evenodd;stroke:none;stroke-width:1pt;stroke-linecap:butt;stroke-linejoin:miter">
          <path
             d="M 22.74,26 C 22.8,22.83 23.56,17.85 24.35,14.58 C 24.35,14.58 27.56,1 27.56,1 C 25.52,0.31 22.34,0 19.28,0 C 6.86,0 0.7,9.2 0.27,17.82 C 0,23.23 2.93,26 7.49,26 C 10.44,26 13.77,24.57 16.36,20.27 C 16.36,20.27 16.47,20.27 16.47,20.27 C 16.27,22.34 16.03,24.35 15.9,26 C 15.9,26 22.74,26 22.74,26 z M 17.61,11.72 C 16.15,18.08 13.17,20 10.95,20 C 8.88,20 7.98,18.53 8.1,16.39 C 8.34,11.56 12.16,6 16.98,6 C 17.76,6 18.37,5.86 18.94,5.72 C 18.94,5.72 17.61,11.72 17.61,11.72 z "
             id="path2757"
             style="fill:#008033;fill-opacity:1" />
        </g>
        <g
           transform="matrix(1.705222,0,0,1.705222,-536.6807,-711.9434)"
           id="g2759"
           style="fill:#008033;fill-opacity:1;fill-rule:evenodd;stroke:none;stroke-width:1pt;stroke-linecap:butt;stroke-linejoin:miter">
          <path
             d="M 0,24.82 C 1.44,25.94 4.46,25.95 7.61,26 C 14.34,26.05 19.42,23.11 19.72,17.71 C 19.89,14.11 17.1,11.98 14.37,10.55 C 12.4,9.6 11.41,8.69 11.46,7.63 C 11.53,6.2 12.87,6 14.84,6 C 17.06,6 18.84,6.27 19.86,6.47 C 19.86,6.47 21.88,1.05 21.88,1.05 C 20.73,0.36 18.43,0 15.48,0 C 8.95,0 4.17,3.45 3.9,8.69 C 3.74,11.93 6.07,14.11 8.89,15.59 C 11.17,16.76 11.95,17.66 11.89,18.93 C 11.82,20.21 10.68,20 8.61,20 C 6.18,20 3.49,19.68 2.07,19.46 C 2.07,19.46 0,24.82 0,24.82 z "
             id="path2761"
             style="fill:#008033;fill-opacity:1" />
        </g>
        <g
           transform="matrix(1.705222,0,0,1.705222,-481.3463,-730.7008)"
           id="g2763"
           style="fill:#008033;fill-opacity:1;fill-rule:evenodd;stroke:none;stroke-width:1pt;stroke-linecap:butt;stroke-linejoin:miter">
          <path
             d="M 7.45,37 C 7.45,37 13.5,12 13.5,12 C 13.5,12 6.09,12 6.09,12 C 6.09,12 0,37 0,37 C 0,37 7.45,37 7.45,37 z M 10.92,9 C 13.46,9 15.72,6.9 15.86,3.3 C 15.98,0.86 14.4,0 12.07,0 C 9.64,0 7.42,1.58 7.29,3.94 C 7.17,6.32 8.75,9 10.92,9 z "
             id="path2765"
             style="fill:#008033;fill-opacity:1" />
        </g>
        <g
           transform="matrix(1.705222,0,0,1.705222,-456.9787,-710.7668)"
           id="g2767"
           style="fill:#008033;fill-opacity:1;fill-rule:evenodd;stroke:none;stroke-width:1pt;stroke-linecap:butt;stroke-linejoin:miter">
          <path
             d="M 7.46,25.31 C 7.46,25.31 10.1,14.05 10.1,14.05 C 11.47,8.32 14.42,6.31 16.85,6.31 C 18.77,6.31 19.33,7.13 19.24,8.32 C 19.19,9.28 19.04,10.29 18.84,11.19 C 18.84,11.19 15.48,25.31 15.48,25.31 C 15.48,25.31 22.94,25.31 22.94,25.31 C 22.94,25.31 26.48,10.5 26.48,10.5 C 26.75,9.22 27.05,7.31 27.11,6.15 C 27.33,1.64 25.08,0 20.94,0 C 17.62,0 14.39,1.54 11.84,4.88 C 11.84,4.88 11.74,4.88 11.74,4.88 C 11.74,4.88 12.42,0.31 12.42,0.31 C 12.42,0.31 5.84,0.31 5.84,0.31 C 5.41,2.45 4.86,5.04 4.08,8.06 C 4.08,8.06 0,25.31 0,25.31 C 0,25.31 7.46,25.31 7.46,25.31 z "
             id="path2769"
             style="fill:#008033;fill-opacity:1" />
        </g>
        <g
           transform="matrix(1.705222,0,0,1.705222,-389.5201,-728.9956)"
           id="g2771"
           style="fill:#008033;fill-opacity:1;fill-rule:evenodd;stroke:none;stroke-width:1pt;stroke-linecap:butt;stroke-linejoin:miter">
          <path
             d="M 0,36 C 0,36 7.46,36 7.46,36 C 7.46,36 10.82,22 10.82,22 C 10.82,22 22.93,22 22.93,22 C 22.93,22 24.49,16 24.49,16 C 24.49,16 12.32,16 12.32,16 C 12.32,16 14.34,7 14.34,7 C 14.34,7 27.29,7 27.29,7 C 27.29,7 28.85,0 28.85,0 C 28.85,0 8.4,0 8.4,0 C 8.4,0 0,36 0,36 z "
             id="path2773"
             style="fill:#008033;fill-opacity:1" />
        </g>
        <g
           transform="matrix(1.705222,0,0,1.705222,-345.2696,-711.9434)"
           id="g2775"
           style="fill:#008033;fill-opacity:1;fill-rule:evenodd;stroke:none;stroke-width:1pt;stroke-linecap:butt;stroke-linejoin:miter">
          <path
             d="M 7.51,26 C 7.51,26 9.75,16.6 9.75,16.6 C 10.93,11.51 13.42,7 18.13,7 C 18.55,7 18.96,7.21 19.27,7.26 C 19.27,7.26 21.09,0.05 21.09,0.05 C 20.67,0.05 20.21,0 19.69,0 C 16.22,0 13.31,2.44 11.37,5.94 C 11.37,5.94 11.17,5.94 11.17,5.94 C 11.46,4.23 11.71,2.61 11.9,1 C 11.9,1 5.47,1 5.47,1 C 5.11,3.08 4.53,7.15 3.66,10.82 C 3.66,10.82 0,26 0,26 C 0,26 7.51,26 7.51,26 z "
             id="path2777"
             style="fill:#008033;fill-opacity:1" />
        </g>
        <g
           transform="matrix(1.705222,0,0,1.705222,-310.0908,-711.9434)"
           id="g2779"
           style="fill:#008033;fill-opacity:1;fill-rule:evenodd;stroke:none;stroke-width:1pt;stroke-linecap:butt;stroke-linejoin:miter">
          <path
             d="M 20.06,19.25 C 17.99,20.26 15.63,20 12.88,20 C 10.71,20 9.03,19.62 8.11,18.88 C 7.63,18.07 7.43,16.81 7.47,16 C 17.6,16.27 23.99,13.93 24.31,7.53 C 24.55,2.7 21.02,0 15.89,0 C 6.73,0 0.73,8.08 0.34,15.86 C 0,22.65 3.53,26 10.78,26 C 13.57,26 17.28,25.68 20.3,24.77 C 20.3,24.77 20.06,19.25 20.06,19.25 z M 17.32,7.53 C 17.2,9.91 14.26,10.05 8.47,10 C 9.1,7.91 11.22,6 14.69,6 C 16.4,6 17.38,6.65 17.32,7.53 z "
             id="path2781"
             style="fill:#008033;fill-opacity:1" />
        </g>
        <g
           transform="matrix(1.705222,0,0,1.705222,-264.8684,-711.9434)"
           id="g2783"
           style="fill:#008033;fill-opacity:1;fill-rule:evenodd;stroke:none;stroke-width:1pt;stroke-linecap:butt;stroke-linejoin:miter">
          <path
             d="M 20.05,19.25 C 17.98,20.26 15.62,20 12.88,20 C 10.7,20 9.03,19.62 8.11,18.88 C 7.63,18.07 7.42,16.81 7.46,16 C 17.6,16.27 23.98,13.93 24.31,7.53 C 24.55,2.7 21.02,0 15.89,0 C 6.72,0 0.72,8.08 0.33,15.86 C 0,22.65 3.52,26 10.77,26 C 13.57,26 17.27,25.68 20.3,24.77 C 20.3,24.77 20.05,19.25 20.05,19.25 z M 17.32,7.53 C 17.2,9.91 14.26,10.05 8.46,10 C 9.1,7.91 11.21,6 14.68,6 C 16.39,6 17.38,6.65 17.32,7.53 z "
             id="path2785"
             style="fill:#008033;fill-opacity:1" />
        </g>
        <g
           transform="matrix(1.705222,0,0,1.705222,-219.8846,-730.7008)"
           id="g2787"
           style="fill:#008033;fill-opacity:1;fill-rule:evenodd;stroke:none;stroke-width:1pt;stroke-linecap:butt;stroke-linejoin:miter">
          <path
             d="M 23.31,0 C 23.31,0 20.5,11.36 20.5,11.36 C 19.48,10.94 18.15,11 17.11,11 C 7.53,11 0.75,19.2 0.3,28.08 C 0,34.34 3.34,37 7.64,37 C 10.65,37 13.82,35.67 16.22,32.23 C 16.22,32.23 16.32,32.23 16.32,32.23 C 16.32,32.23 15.75,37 15.75,37 C 15.75,37 22.53,37 22.53,37 C 22.84,34 23.49,30.43 24.22,27.17 C 24.22,27.17 30.71,0 30.71,0 C 30.71,0 23.31,0 23.31,0 z M 17.47,24.42 C 16.3,29.35 13.54,31 11.36,31 C 9.19,31 7.98,29.49 8.13,26.8 C 8.38,21.82 11.8,17 16.25,17 C 17.5,17 18.57,17.19 19.16,17.47 C 19.16,17.47 17.47,24.42 17.47,24.42 z "
             id="path2789"
             style="fill:#008033;fill-opacity:1" />
        </g>
        <g
           transform="matrix(1.705222,0,0,1.705222,-169.2225,-711.9434)"
           id="g2791"
           style="fill:#008033;fill-opacity:1;fill-rule:evenodd;stroke:none;stroke-width:1pt;stroke-linecap:butt;stroke-linejoin:miter">
          <path
             d="M 10.61,26 C 19.31,26 26.02,19.41 26.49,10.44 C 26.78,4.5 23.08,0 16.25,0 C 7.23,0 0.76,7.3 0.31,16.12 C 0,22.54 4.14,26 10.61,26 z M 11.78,20 C 9.24,20 7.84,18.38 7.99,15.96 C 8.19,11.93 10.68,6 14.97,6 C 17.93,6 18.84,8.27 18.72,10.5 C 18.5,14.9 15.82,20 11.78,20 z "
             id="path2793"
             style="fill:#008033;fill-opacity:1" />
        </g>
        <g
           transform="matrix(1.705222,0,0,1.705222,-120.5213,-711.9434)"
           id="g2795"
           style="fill:#008033;fill-opacity:1;fill-rule:evenodd;stroke:none;stroke-width:1pt;stroke-linecap:butt;stroke-linejoin:miter">
          <path
             d="M 7.2,26 C 7.2,26 9.9,14.58 9.9,14.58 C 11.03,9.49 13.85,6 16.38,6 C 18.2,6 18.7,7.33 18.61,9.07 C 18.56,9.97 18.36,10.98 18.15,11.98 C 18.15,11.98 14.81,26 14.81,26 C 14.81,26 22.01,26 22.01,26 C 22.01,26 24.71,14.53 24.71,14.53 C 25.95,9.28 28.61,6 31.09,6 C 32.8,6 33.51,7.22 33.43,8.96 C 33.38,9.97 33.17,11.08 32.91,12.09 C 32.91,12.09 29.67,26 29.67,26 C 29.67,26 36.92,26 36.92,26 C 36.92,26 40.41,11.19 40.41,11.19 C 40.68,9.86 40.99,7.79 41.04,6.73 C 41.26,2.33 39.11,0 35.23,0 C 31.91,0 28.68,1.5 26.23,4.66 C 26.14,2.38 24.51,0 20.47,0 C 17.2,0 14.08,1.48 11.58,4.83 C 11.58,4.83 11.48,4.83 11.48,4.83 C 11.48,4.83 12.15,1 12.15,1 C 12.15,1 5.73,1 5.73,1 C 5.31,3.14 4.8,5.73 4.02,8.75 C 4.02,8.75 0,26 0,26 C 0,26 7.2,26 7.2,26 z "
             id="path2797"
             style="fill:#008033;fill-opacity:1" />
        </g>
      </g>
      <path
         id="path2799"
         sodipodi:nodetypes="cccccssccccscccsccc"
         d="M 657.13929,595.58958 C 657.40595,596.27494 657.67261,596.95928 657.95022,597.62855 C 658.37795,598.53788 658.87234,599.40817 659.46661,600.22082 C 662.67712,604.58494 668.05377,606.97447 674.88026,607.56932 C 674.88026,607.56932 682.22317,607.56932 682.22317,607.56932 C 684.54501,607.38827 686.9778,607.05061 689.49952,606.55736 C 693.84869,605.70694 698.45893,604.40059 703.24678,602.65475 C 706.87383,601.33231 710.60088,599.76763 714.38352,597.94909 C 722.62069,594.00036 731.13011,588.90749 739.47846,582.76158 C 742.22792,580.73915 744.8663,578.66399 747.39909,576.5539 C 749.72093,574.622 751.94826,572.6602 754.07558,570.6767 C 760.01329,564.95452 764.49567,559.14295 767.03406,554.04004 C 769.67804,548.72606 770.20564,544.1826 768.0395,541.32037 C 766.71192,539.56346 764.49019,538.62194 761.62967,538.40037 C 774.51589,528.73117 782.02557,517.00188 779.33171,509.60669 C 778.47626,507.24661 776.59333,505.48582 773.89388,504.51211 C 772.69415,504.08062 771.3443,503.80722 769.87244,503.6828 C 769.87244,503.6828 765.90658,503.6828 765.90658,503.6828 C 760.36875,504.08221 752.31571,506.06514 745.48386,509.41332"
         style="fill:#a00;fill-opacity:0;fill-rule:evenodd;stroke:#007f32;stroke-width:3.28386545;stroke-linecap:butt;stroke-linejoin:miter;stroke-miterlimit:4;stroke-opacity:1" />
      <path
         d="M 493.52439,506.25189 C 493.52439,506.25189 471.45126,605.9172 471.45126,605.9172 C 471.45788,605.9172 514.89091,605.9172 514.90404,605.9172 C 541.32897,605.9172 620.58297,605.9172 620.58297,605.9172 C 620.58297,605.9172 675.54667,605.9172 675.54667,605.9172 C 668.9986,605.34576 663.82902,603.04709 660.74876,598.85693 C 660.17732,598.08184 659.7053,597.24694 659.2915,596.37345 C 659.02884,595.72987 658.7817,595.08046 658.53217,594.42363 C 657.87534,592.33512 657.61348,590.0175 657.73174,587.54806 C 658.06004,580.66507 661.28972,572.47778 666.88554,563.90421 C 672.8293,554.79287 681.44362,545.24318 692.10971,536.38137 C 694.50027,534.39662 696.97222,532.43664 699.55992,530.53191 C 702.75844,528.17879 705.98151,526.01151 709.20629,523.98475 C 721.08729,516.50475 732.93873,511.27079 743.44055,508.6122 C 733.40515,511.88618 722.13075,517.44433 710.99185,525.01097 C 710.59129,525.28151 710.19553,525.55867 709.80148,525.83195 C 703.6212,530.11412 698.0223,534.66191 693.13582,539.25468 C 677.41271,554.03867 669.10214,569.35791 672.8785,578.33273 C 673.14778,578.95006 673.46877,579.53954 673.84319,580.09785 C 677.90196,586.06786 687.96133,587.09979 700.70931,583.89476 C 701.57629,583.67798 702.44316,583.43256 703.33639,583.1764 C 707.40841,582.00076 711.73155,580.41302 716.18448,578.4559 C 717.255,577.98297 718.33704,577.49702 719.4273,576.97809 C 719.53894,576.92558 719.64407,576.87307 719.75571,576.81394 C 733.81061,569.8305 744.61208,561.79503 746.95025,556.96711 C 747.46245,555.91692 747.58562,555.02151 747.23757,554.31948 C 745.56936,550.93706 733.896,553.22214 719.75571,559.34785 C 718.61945,559.84042 717.47017,560.34736 716.30765,560.88718 C 717.2534,560.00913 718.23773,559.12765 719.2426,558.2601 C 720.84506,556.87955 722.50425,555.5296 724.27098,554.19631 C 727.03607,552.10254 729.83141,550.20968 732.58326,548.53166 C 745.46913,538.81006 751.98353,529.6139 750.62398,526.20135 C 750.36794,525.55833 749.82276,525.11611 748.98203,524.84682 C 746.29593,523.99229 741.39313,525.01212 735.43613,527.45336 C 730.52351,529.46836 724.881,532.45685 719.16053,536.17613 C 719.16053,536.17613 718.38064,536.68924 718.38064,536.68924 C 718.38064,536.68924 718.23693,536.77132 718.23693,536.77132 C 718.23693,536.77132 715.48668,538.59797 715.48668,538.59797 C 715.48668,538.59797 717.06699,535.704 717.06699,535.704 C 719.41178,531.41202 723.23083,526.93386 727.98592,522.77383 C 731.47336,519.73227 735.45748,516.86649 739.74626,514.35893 C 741.36847,513.40919 742.98828,512.52714 744.61049,511.73185 C 746.27207,510.92 747.93458,510.19856 749.55678,509.55623 C 754.26987,507.69237 759.44732,505.33857 763.37071,505.03058 C 763.01342,505.03058 751.67075,506.25189 751.67075,506.25189 C 751.67075,506.25189 714.5221,506.25189 714.5221,506.25189 C 714.5221,506.25189 550.71872,506.25189 550.71872,506.25189 C 550.71872,506.25189 493.52439,506.25189 493.52439,506.25189 z M 655.57667,506.39561 C 654.93309,516.21891 656.8377,530.60714 661.15925,546.58184 C 661.9276,549.42432 662.76422,552.31715 663.68371,555.24308 C 664.25515,557.04987 664.84452,558.82835 665.44883,560.57932 C 665.09417,561.10076 664.73699,561.61901 664.40206,562.1392 C 659.00989,570.40274 655.85828,578.21207 655.06356,585.00305 C 652.78453,577.37134 651.06872,569.01214 650.09672,560.14828 C 649.82081,557.60853 649.60495,555.09731 649.46044,552.616 C 648.39643,534.59216 650.74943,518.25355 655.57667,506.39561 z M 547.96847,519.18206 C 548.09153,519.1792 548.21276,519.18206 548.33787,519.18206 C 548.33787,519.18206 572.618,519.18206 572.618,519.18206 C 574.69339,519.18206 576.29836,519.57109 577.44124,520.352 C 578.57739,521.13747 579.00352,522.15353 578.73424,523.38957 C 578.73424,523.38957 575.84027,536.46345 575.84027,536.46345 C 575.84027,536.46345 567.28176,536.46345 567.28176,536.46345 C 567.28176,536.46345 570.09354,523.73841 570.09354,523.73841 C 570.09354,523.73841 548.66628,523.73841 548.66628,523.73841 C 548.66628,523.73841 540.92875,558.71169 540.92875,558.71169 C 540.92875,558.71169 538.13741,571.37508 538.13741,571.37508 C 538.13741,571.37508 559.54412,571.37508 559.54412,571.37508 C 559.54412,571.37508 559.56466,571.29289 559.56466,571.29289 C 559.56466,571.293 563.85413,551.91819 563.85413,551.91819 C 563.85413,551.91807 553.79739,551.91819 553.79739,551.91819 C 553.79739,551.91807 554.76197,547.54653 554.76197,547.54653 C 554.76197,547.54653 573.37745,547.54653 573.37745,547.54653 C 573.37745,547.54653 568.0411,571.72393 568.0411,571.72393 C 567.96884,572.06809 567.84247,572.37996 567.6717,572.68862 C 567.23165,573.48985 566.46398,574.17613 565.39347,574.74095 C 563.90916,575.52255 562.13262,575.91089 560.05723,575.91089 C 560.05723,575.91089 535.79764,575.91089 535.79764,575.91089 C 533.72225,575.91089 532.11728,575.52255 530.97451,574.74095 C 529.83825,573.95947 529.40562,572.96133 529.68152,571.72393 C 529.68152,571.72393 540.37455,523.38957 540.37455,523.38957 C 540.65034,522.15353 541.51081,521.13747 543.00163,520.352 C 543.05414,520.3238 543.11327,520.31729 543.16578,520.29047 C 544.52658,519.60876 546.12356,519.22566 547.96847,519.18206 z M 586.0203,519.18206 C 586.0203,519.18206 616.5807,519.18206 616.5807,519.18206 C 618.62983,519.18206 620.24063,519.57109 621.3834,520.352 C 622.53279,521.13747 622.97284,522.15353 622.69694,523.38957 C 622.69694,523.38957 616.99119,549.16794 616.99119,549.16794 C 616.72202,550.39609 615.841,551.39811 614.34356,552.18496 C 612.84612,552.97443 611.08351,553.37533 609.02787,553.37533 C 609.02787,553.37533 586.82073,553.37533 586.82073,553.37533 C 586.82073,553.37533 582.53114,572.7296 582.53114,572.7296 C 582.53114,572.7296 581.83333,575.91089 581.83333,575.91089 C 581.83333,575.91089 573.45952,575.91089 573.45952,575.91089 C 573.45952,575.91089 574.09569,573.03747 574.09569,573.03747 C 574.09569,573.03747 586.0203,519.18206 586.0203,519.18206 z M 628.23842,519.18206 C 628.23842,519.18206 636.61234,519.18206 636.61234,519.18206 C 636.61234,519.18206 627.13024,562.01603 627.13024,562.01603 C 627.13024,562.01603 625.05725,571.37508 625.05725,571.37508 C 625.05725,571.37508 645.08878,571.37508 645.08878,571.37508 C 645.29904,572.91122 645.54447,574.41996 645.80713,575.91089 C 645.80713,575.91089 615.67765,575.91089 615.67765,575.91089 C 615.67776,575.91089 618.05851,565.15622 618.05851,565.15622 C 618.05851,565.15622 628.23842,519.18206 628.23842,519.18206 z M 593.38843,523.73841 C 593.38843,523.73841 587.8264,548.81898 587.8264,548.81898 C 587.8264,548.81898 608.69946,548.81898 608.69946,548.81898 C 608.69946,548.81898 614.24105,523.73841 614.24105,523.73841 C 614.24105,523.73841 593.38843,523.73841 593.38843,523.73841 z M 548.87952,582.9328 C 548.96148,582.92995 549.04332,582.9328 549.12585,582.9328 C 550.09785,582.9328 550.94668,583.10346 551.62977,583.42537 C 552.35874,583.76679 552.88007,584.2742 553.1691,584.94415 C 553.45151,585.59436 553.52537,586.33235 553.37434,587.1402 C 553.37434,587.1402 553.3127,587.44806 553.3127,587.44806 C 553.3127,587.44806 550.91141,587.44806 550.91141,587.44806 C 550.91141,587.44806 550.93196,587.16074 550.93196,587.16074 C 550.99406,586.59627 550.92408,586.15244 550.70617,585.8472 C 550.67774,585.80885 550.63665,585.75839 550.60355,585.72403 C 550.54932,585.66867 550.46793,585.60555 550.3983,585.55988 C 550.06235,585.34825 549.53669,585.23147 548.85897,585.23147 C 547.95923,585.23147 547.28687,585.38831 546.82707,585.70349 C 546.38051,586.01215 546.0981,586.357 546.00609,586.7708 C 545.9142,587.19111 546.06523,587.41199 546.17036,587.53014 C 546.17367,587.53345 546.18691,587.54703 546.19079,587.55069 C 546.32389,587.66415 546.78609,587.93001 548.2228,588.26904 C 549.5231,588.58433 550.38437,588.86754 550.87032,589.11057 C 551.60591,589.48487 552.11982,589.97013 552.3891,590.56771 C 552.65839,591.15879 552.71752,591.85089 552.55337,592.59961 C 552.3891,593.32869 552.0172,594.00104 551.4655,594.6315 C 550.92043,595.26208 550.22673,595.76115 549.39263,596.10931 C 548.56503,596.45073 547.65707,596.64285 546.72445,596.64285 C 545.5423,596.64285 544.59324,596.46386 543.85114,596.10931 C 543.07605,595.74151 542.51706,595.16105 542.18864,594.40571 C 541.87335,593.67012 541.80612,592.83521 541.9834,591.92235 C 541.9834,591.92235 542.04492,591.63503 542.04492,591.63503 C 542.04492,591.63503 544.40523,591.63503 544.40523,591.63503 C 544.40523,591.63503 544.38469,591.92235 544.38469,591.92235 C 544.32556,592.46742 544.38389,592.90747 544.5284,593.23589 C 544.6663,593.55117 544.92908,593.81224 545.34938,594.01577 C 545.79594,594.23254 546.35426,594.34418 546.99134,594.34418 C 547.56266,594.34418 548.08479,594.24818 548.5511,594.07741 C 549.0109,593.91315 549.37619,593.69649 549.63897,593.42058 C 549.89501,593.14479 550.04534,592.85336 550.11098,592.53808 C 550.17662,592.25567 550.16098,592.01675 550.04934,591.81972 C 549.92457,591.60957 549.67743,591.42316 549.29,591.26552 C 549.29,591.26552 547.27866,590.67033 547.27866,590.67033 C 546.15552,590.38792 545.39949,590.11864 544.95944,589.84935 C 544.36174,589.49469 543.93071,589.03991 543.70743,588.49483 C 543.48415,587.95627 543.46029,587.35937 543.6048,586.70916 C 543.75583,586.01307 544.09166,585.35053 544.61048,584.75945 C 545.13592,584.16176 545.81398,583.69294 546.62183,583.38427 C 547.33607,583.11647 548.08776,582.9594 548.87952,582.9328 z M 570.42983,582.97378 C 570.55973,582.96374 570.68188,582.97378 570.81989,582.97378 C 570.81989,582.97378 572.29758,583.13805 572.29758,583.13805 C 572.29758,583.13805 572.79014,583.17903 572.79014,583.17903 C 572.79014,583.17903 572.07179,585.00568 572.07179,585.00568 C 572.07179,585.00568 571.92818,585.293 571.92818,585.293 C 571.92818,585.293 570.79934,585.19038 570.79934,585.19038 C 570.46602,585.19038 570.22116,585.24186 570.06044,585.35464 C 570.04982,585.36263 570.02927,585.38706 570.01934,585.39562 C 569.99788,585.41457 569.9617,585.44745 569.93727,585.4777 C 569.83853,585.60737 569.7181,585.83898 569.62951,586.25769 C 569.6294,586.25769 569.58671,586.43497 569.54733,586.58611 C 570.06614,586.58611 571.31245,586.58611 571.31245,586.58611 C 571.31245,586.58611 570.86087,588.61789 570.86087,588.61789 C 570.86087,588.61789 569.57038,588.61789 569.13684,588.61789 C 569.00556,589.20908 567.39226,596.43761 567.39226,596.43761 C 567.39226,596.43761 565.01152,596.43761 565.01152,596.43761 C 565.01152,596.43761 566.55895,589.49149 566.75609,588.61789 C 566.35542,588.61789 565.38091,588.61789 565.38091,588.61789 C 565.38091,588.61789 565.83249,586.58611 565.83249,586.58611 C 565.83249,586.58611 566.81271,586.58611 567.18713,586.58611 C 567.25277,586.3037 567.35128,585.94983 567.35128,585.94983 C 567.4958,585.293 567.64682,584.82098 567.84384,584.49257 C 568.11313,584.03939 568.49325,583.66018 568.97269,583.38427 C 569.36754,583.15483 569.86695,583.01762 570.42983,582.97378 z M 576.11503,583.0764 C 576.11503,583.0764 575.49279,585.87677 575.33515,586.58611 C 575.79484,586.58611 576.87448,586.58611 576.87448,586.58611 C 576.87448,586.58611 576.4229,588.61789 576.4229,588.61789 C 576.4229,588.61789 575.29086,588.61789 574.88356,588.61789 C 574.7588,589.18271 573.77538,593.5643 573.77538,593.5643 C 573.77538,593.5643 573.69319,594.09054 573.69319,594.24156 C 573.69331,594.24658 573.69285,594.25834 573.69319,594.26211 C 573.69354,594.26359 573.69274,594.28129 573.69319,594.28266 C 573.69388,594.28368 573.71294,594.28174 573.71374,594.28266 C 573.71374,594.28266 573.96008,594.30309 573.96008,594.30309 C 573.96008,594.30309 575.08881,594.22101 575.08881,594.22101 C 575.08881,594.22101 574.96575,596.04767 574.96575,596.04767 C 574.96575,596.04767 574.9863,596.37608 574.9863,596.37608 C 574.9863,596.37608 573.36489,596.56078 573.36489,596.56078 C 572.72119,596.56078 572.24918,596.45576 571.90764,596.23236 C 571.54646,595.99595 571.33619,595.68238 571.25081,595.28833 C 571.23768,595.21607 571.20983,595.11094 571.20983,594.95992 C 571.20983,594.66438 571.26565,594.16439 571.45605,593.29741 C 571.45605,593.29741 572.31892,589.43236 572.50282,588.61789 C 572.19416,588.61789 571.37398,588.61789 571.37398,588.61789 C 571.37398,588.61789 571.82556,586.58611 571.82556,586.58611 C 571.82556,586.58611 572.62599,586.58611 572.95429,586.58611 C 573.05942,586.11318 573.42642,584.49257 573.42642,584.49257 C 573.42642,584.49257 575.33515,583.48689 575.33515,583.48689 C 575.33515,583.48689 576.11503,583.0764 576.11503,583.0764 z M 500.48351,583.15848 C 500.48351,583.15848 509.7194,583.15848 509.7194,583.15848 C 509.7194,583.15848 509.20628,585.45726 509.20628,585.45726 C 509.20628,585.45726 503.04496,585.45726 502.45388,585.45726 C 502.34875,585.92357 501.92764,587.81175 501.77662,588.49483 C 502.63036,588.49483 507.62597,588.49483 507.62597,588.49483 C 507.62597,588.49483 507.11286,590.7935 507.11286,590.7935 C 507.11286,590.7935 501.85459,590.7935 501.2634,590.7935 C 501.13874,591.36494 500.0115,596.43761 500.0115,596.43761 C 500.0115,596.43761 497.52802,596.43761 497.52802,596.43761 C 497.52802,596.43761 500.48351,583.15848 500.48351,583.15848 z M 512.85959,586.4013 C 512.95228,586.38999 513.05353,586.4013 513.14691,586.4013 C 513.7381,586.4013 514.28397,586.58108 514.80941,586.9555 C 514.80941,586.9555 515.13782,587.18129 515.13782,587.18129 C 515.13782,587.18129 513.86526,589.27472 513.86526,589.27472 C 513.86526,589.27472 513.51642,589.02838 513.51642,589.02838 C 513.26026,588.86423 512.98447,588.78215 512.69544,588.78215 C 512.4459,588.78215 512.21349,588.87085 511.97708,589.02838 C 511.72755,589.19264 511.51899,589.41021 511.36135,589.70575 C 511.08545,590.21144 510.88351,590.77786 510.74562,591.38869 C 510.74562,591.38869 509.63732,596.43761 509.63732,596.43761 C 509.63732,596.43761 507.25658,596.43761 507.25658,596.43761 C 507.25658,596.43761 509.45262,586.58611 509.45262,586.58611 C 509.45262,586.58611 511.66922,586.58611 511.66922,586.58611 C 511.66922,586.58611 511.59285,586.88484 511.56659,586.99648 C 511.67161,586.91772 511.78246,586.80939 511.87446,586.75026 C 512.1926,586.56042 512.52855,586.44193 512.85959,586.4013 z M 519.91997,586.4013 C 520.06323,586.39045 520.20444,586.4013 520.35089,586.4013 C 521.6908,586.4013 522.70458,586.87091 523.36803,587.79703 C 523.78172,588.39461 524.0042,589.13351 524.0042,590.01362 C 524.0042,590.49956 523.94427,591.0226 523.8195,591.59393 C 523.8195,591.59393 523.6348,592.31229 523.6348,592.31229 C 523.6348,592.31229 517.61377,592.31229 516.94393,592.31229 C 516.9308,592.45018 516.92338,592.59801 516.92338,592.72278 C 516.92338,593.23509 517.02851,593.63816 517.25179,593.93369 C 517.35784,594.07821 517.4809,594.20834 517.62119,594.30309 C 517.88579,594.47569 518.22722,594.56997 518.62686,594.56997 C 519.11292,594.56997 519.53985,594.43607 519.9404,594.18003 C 520.32133,593.937 520.68593,593.54866 521.00772,593.01009 C 521.00772,593.01009 523.55273,593.01009 523.55273,593.01009 C 523.55273,593.01009 523.32694,593.50266 523.32694,593.50266 C 522.84099,594.4879 522.16282,595.25625 521.31559,595.80144 C 520.46836,596.34651 519.45606,596.64285 518.33954,596.64285 C 516.88811,596.64285 515.80766,596.17335 515.13782,595.24724 C 514.47449,594.34087 514.33157,593.08806 514.68624,591.51186 C 515.04091,589.90928 515.74865,588.62862 516.77978,587.73538 C 517.70395,586.93404 518.75266,586.48953 519.91997,586.4013 z M 530.613,586.4013 C 530.75637,586.39045 530.89746,586.4013 531.04403,586.4013 C 532.38383,586.4013 533.39772,586.87091 534.06106,587.79703 C 534.47486,588.39461 534.69734,589.13351 534.69734,590.01362 C 534.69734,590.49305 534.63741,591.00856 534.51264,591.57338 C 534.51264,591.57338 534.32794,592.31229 534.32794,592.31229 C 534.32794,592.31229 528.30691,592.31229 527.63695,592.31229 C 527.63045,592.40418 527.62303,592.48717 527.61652,592.57906 C 527.61161,592.61353 527.61869,592.66593 527.61652,592.70223 C 527.61629,592.70816 527.61652,592.71707 527.61652,592.72278 C 527.61652,592.82129 527.63045,592.9182 527.63695,593.01009 C 527.66983,593.38451 527.76754,593.69729 527.94493,593.93369 C 527.97861,593.9797 528.01034,594.03643 528.04744,594.07741 C 528.34835,594.3992 528.77402,594.56997 529.32,594.56997 C 529.80606,594.56997 530.23949,594.43607 530.63354,594.18003 C 531.01447,593.937 531.37895,593.54866 531.70075,593.01009 C 531.70075,593.01009 534.2663,593.01009 534.2663,593.01009 C 534.2663,593.01009 534.02008,593.50266 534.02008,593.50266 C 533.53402,594.4879 532.85596,595.25625 532.00861,595.80144 C 531.16138,596.34651 530.1492,596.64285 529.03268,596.64285 C 527.58113,596.64285 526.5008,596.17335 525.83085,595.24724 C 525.39742,594.65616 525.19457,593.90333 525.19457,593.01009 C 525.19457,592.8722 525.20199,592.72357 525.21512,592.57906 C 525.24148,592.23763 525.29399,591.89278 525.37938,591.51186 C 525.73405,589.9159 526.42113,588.62862 527.45226,587.73538 C 528.37654,586.93404 529.4458,586.48953 530.613,586.4013 z M 559.73681,586.4013 C 559.88349,586.39011 560.01842,586.4013 560.16784,586.4013 C 561.53389,586.4013 562.58386,586.86349 563.26694,587.77648 C 563.9434,588.68935 564.10767,589.92081 563.7595,591.47076 C 563.49022,592.67928 563.10119,593.65539 562.56913,594.36473 C 562.03719,595.07407 561.35901,595.65361 560.55778,596.04767 C 559.76306,596.44172 558.92154,596.64285 558.0743,596.64285 C 556.682,596.64285 555.64505,596.16673 554.9752,595.24724 C 554.54166,594.66278 554.31838,593.90995 554.31838,593.01009 C 554.31838,592.52415 554.3718,592.00773 554.50319,591.42978 C 554.89724,589.66957 555.70178,588.32897 556.88393,587.46861 C 557.75171,586.84215 558.71001,586.48029 559.73681,586.4013 z M 595.79771,586.4013 C 595.97088,586.39068 596.13126,586.4013 596.31082,586.4013 C 597.13842,586.4013 597.78863,586.48508 598.28119,586.68861 C 598.80663,586.89888 599.17934,587.19602 599.38949,587.55069 C 599.59302,587.88561 599.69736,588.29689 599.69736,588.8027 C 599.69736,588.8027 599.45102,590.30094 599.45102,590.30094 C 599.45102,590.30094 598.99955,592.33283 598.99955,592.33283 C 598.612,594.06668 598.52662,594.71689 598.50687,594.95992 C 598.48724,595.28833 598.5176,595.60852 598.60961,595.90406 C 598.60961,595.90406 598.77376,596.43761 598.77376,596.43761 C 598.77376,596.43761 596.35192,596.43761 596.35192,596.43761 C 596.35192,596.43761 596.2493,596.12974 596.2493,596.12974 C 596.20991,595.98534 596.22133,595.80144 596.2082,595.63718 C 595.74851,595.91959 595.28791,596.17004 594.87411,596.31455 C 594.2634,596.5247 593.62952,596.64285 592.98593,596.64285 C 591.86942,596.64285 591.04273,596.35222 590.54355,595.78089 C 590.16263,595.36059 589.98934,594.84656 589.98934,594.26211 C 589.98934,594.03883 590.01902,593.80721 590.07153,593.5643 C 590.18317,593.06512 590.38591,592.60292 590.7077,592.18912 C 591.02299,591.78194 591.39569,591.44702 591.81611,591.20399 C 592.22329,590.96096 592.67727,590.78859 593.15008,590.67033 C 593.15008,590.67033 594.60734,590.42411 594.60734,590.42411 C 595.73048,590.29272 596.56869,590.12937 597.1729,589.95198 C 597.18602,589.88634 597.21388,589.80837 597.21388,589.80837 C 597.30908,589.38579 597.29721,589.0681 597.19344,588.90532 C 597.18568,588.89482 597.16091,588.87325 597.15235,588.86423 C 597.1302,588.8406 597.09607,588.8035 597.07027,588.78215 C 596.82325,588.58661 596.40203,588.49483 595.83881,588.49483 C 595.20173,588.49483 594.73051,588.59905 594.4021,588.8027 C 594.0803,589.00623 593.78225,589.37894 593.51959,589.911 C 593.51959,589.911 591.03611,589.911 591.03611,589.911 C 591.03611,589.911 591.2619,589.41843 591.2619,589.41843 C 591.55744,588.73535 591.90971,588.16893 592.34965,587.73538 C 592.78971,587.30195 593.38409,586.96612 594.07368,586.72971 C 594.6022,586.55529 595.17935,586.43954 595.79771,586.4013 z M 606.20353,586.4013 C 606.29611,586.38999 606.39748,586.4013 606.49085,586.4013 C 607.08844,586.4013 607.64835,586.58108 608.17379,586.9555 C 608.17379,586.9555 608.48165,587.18129 608.48165,587.18129 C 608.48165,587.18129 607.20921,589.27472 607.20921,589.27472 C 607.20921,589.27472 606.86025,589.02838 606.86025,589.02838 C 606.60409,588.86423 606.34223,588.78215 606.05982,588.78215 C 605.81028,588.78215 605.56394,588.87085 605.32091,589.02838 C 605.07138,589.19264 604.88988,589.41021 604.72573,589.70575 C 604.45644,590.21144 604.248,590.77786 604.11,591.38869 C 604.11,591.38869 602.98115,596.43761 602.98115,596.43761 C 602.98127,596.43761 600.60041,596.43761 600.60041,596.43761 C 600.60041,596.43761 602.79645,586.58611 602.79645,586.58611 C 602.79645,586.58611 605.01305,586.58611 605.01305,586.58611 C 605.01305,586.58611 604.95723,586.88484 604.93097,586.99648 C 605.03611,586.91772 605.14033,586.80939 605.23884,586.75026 C 605.55184,586.56042 605.87272,586.44193 606.20353,586.4013 z M 613.24325,586.4013 C 613.38651,586.39045 613.52772,586.4013 613.67429,586.4013 C 615.01409,586.4013 616.0346,586.87091 616.69131,587.79703 C 617.11173,588.39461 617.32759,589.13351 617.32759,590.01362 C 617.32759,590.49956 617.24712,591.0226 617.12235,591.59393 C 617.12235,591.59393 616.9582,592.31229 616.9582,592.31229 C 616.9582,592.31229 610.93066,592.31229 610.26721,592.31229 C 610.25408,592.45018 610.22623,592.59801 610.22623,592.72278 C 610.22623,593.23509 610.33787,593.63816 610.55464,593.93369 C 610.58832,593.9797 610.64049,594.03643 610.6777,594.07741 C 610.69927,594.10036 610.73706,594.13814 610.75989,594.15949 C 611.05349,594.42637 611.45302,594.56997 611.95026,594.56997 C 612.4362,594.56997 612.86313,594.43607 613.2638,594.18003 C 613.64473,593.937 614.0027,593.54866 614.331,593.01009 C 614.331,593.01009 616.89656,593.01009 616.89656,593.01009 C 616.89656,593.01009 616.65033,593.50266 616.65033,593.50266 C 616.16428,594.4879 615.4796,595.25625 614.63887,595.80144 C 613.78513,596.34651 612.78596,596.64285 611.66294,596.64285 C 610.21151,596.64285 609.15161,596.17335 608.48165,595.24724 C 607.81832,594.34087 607.66159,593.08806 608.00964,591.51186 C 608.36431,589.90928 609.05138,588.62862 610.08251,587.73538 C 611.01262,586.93404 612.07708,586.48953 613.24325,586.4013 z M 577.30552,586.58611 C 577.30552,586.58611 579.74779,586.58611 579.74779,586.58611 C 579.74779,586.58611 580.04915,592.43215 580.05565,592.51753 C 580.15417,592.30818 580.23065,592.13204 580.24046,592.10704 C 580.24046,592.10704 582.92907,586.58611 582.92907,586.58611 C 582.92907,586.58611 585.16622,586.58611 585.16622,586.58611 C 585.16622,586.58611 585.37146,592.3616 585.37146,592.39436 C 585.4371,592.27621 588.42958,586.58611 588.42958,586.58611 C 588.42958,586.58611 590.85142,586.58611 590.85142,586.58611 C 590.85142,586.58611 585.51518,596.43761 585.51518,596.43761 C 585.51518,596.43761 583.31902,596.43761 583.31902,596.43761 C 583.31902,596.43761 583.10647,591.09566 583.09334,590.7935 C 582.18698,592.65223 580.34309,596.43761 580.34309,596.43761 C 580.34309,596.43761 578.0854,596.43761 578.0854,596.43761 C 578.0854,596.43761 577.30552,586.58611 577.30552,586.58611 z M 519.96095,588.45374 C 519.39522,588.4776 518.88142,588.68158 518.40119,589.06947 C 518.02026,589.37163 517.76331,589.78623 517.55966,590.2393 C 517.55966,590.23941 521.60291,590.2393 521.60291,590.2393 C 521.60953,590.16715 521.62345,590.07926 521.62345,590.01362 C 521.62345,589.6392 521.5569,589.34857 521.43876,589.15155 C 521.14973,588.67873 520.7212,588.45374 520.08412,588.45374 C 520.04599,588.45374 519.99874,588.45214 519.96095,588.45374 z M 530.65409,588.45374 C 530.08836,588.4776 529.57445,588.68158 529.09421,589.06947 C 528.71329,589.37163 528.46295,589.78623 528.25269,590.2393 C 528.25269,590.23941 532.29605,590.2393 532.29605,590.2393 C 532.30255,590.16715 532.31648,590.07926 532.31648,590.01362 C 532.31648,589.6392 532.25655,589.34857 532.13178,589.15155 C 532.07448,589.05555 531.99686,588.96 531.92654,588.88477 C 531.65235,588.60145 531.27496,588.45374 530.77715,588.45374 C 530.73902,588.45374 530.69176,588.45214 530.65409,588.45374 z M 613.36642,588.45374 C 612.78459,588.47166 612.24123,588.66869 611.74502,589.06947 C 611.3706,589.37163 611.11364,589.78623 610.90349,590.2393 C 610.90349,590.23941 614.9263,590.2393 614.9263,590.2393 C 614.93281,590.16715 614.94674,590.07926 614.94674,590.01362 C 614.94674,589.6392 614.88681,589.34857 614.76204,589.15155 C 614.47963,588.68524 614.0446,588.46036 613.4074,588.45374 C 613.38857,588.45397 613.38514,588.45317 613.36642,588.45374 z M 559.59309,588.49483 C 559.05018,588.55933 558.54541,588.80692 558.0743,589.23362 C 557.50948,589.74593 557.09991,590.55047 556.86338,591.61448 C 556.76487,592.06104 556.71978,592.44288 556.71978,592.7843 C 556.71978,593.25061 556.80928,593.61681 556.98655,593.8926 C 557.03381,593.96349 557.09637,594.03826 557.1507,594.09784 C 557.4427,594.40788 557.85045,594.56997 558.36162,594.56997 C 559.02496,594.56997 559.60953,594.32284 560.16784,593.81052 C 560.73266,593.29171 561.13573,592.47895 561.37876,591.38869 C 561.60204,590.39043 561.57088,589.64502 561.25559,589.17209 C 560.95343,588.71241 560.51178,588.49483 559.90096,588.49483 C 559.79731,588.49483 559.69366,588.48285 559.59309,588.49483 z M 596.68033,592.0865 C 596.12202,592.23763 595.49647,592.3648 594.66887,592.47644 C 594.05154,592.56844 593.61148,592.66536 593.35533,592.76387 C 593.13205,592.85576 592.95226,592.98304 592.80124,593.15381 C 592.65672,593.31796 592.55981,593.49033 592.51392,593.68747 C 592.50079,593.76623 592.49337,593.84751 592.49337,593.91315 C 592.49337,593.91851 592.49326,593.92844 592.49337,593.93369 C 592.49406,593.94933 592.49166,593.98015 592.49337,593.99522 C 592.49748,594.02502 592.5057,594.07011 592.51392,594.09784 C 592.51677,594.10709 592.53104,594.13003 592.53435,594.13894 C 592.54154,594.15663 592.54599,594.18369 592.5549,594.20047 C 592.56426,594.21713 592.58492,594.24613 592.59599,594.26211 C 592.61323,594.28574 592.63663,594.32204 592.65752,594.34418 C 592.82178,594.52808 593.14928,594.61096 593.62221,594.61096 C 594.14103,594.61096 594.64022,594.51244 595.09991,594.28266 C 595.55309,594.05926 595.91837,593.72594 596.18765,593.33851 C 596.38468,593.0626 596.54232,592.63819 596.68033,592.0865 z M 486.20432,574.95601 L 499.1784,518.08401 L 506.81067,518.08401 L 495.31934,568.5162 L 524.95282,568.5162 L 523.47006,574.95601 L 486.20432,574.95601"
         style="fill:#008033;fill-opacity:1;fill-rule:evenodd;stroke:none;stroke-width:1pt;stroke-linecap:butt;stroke-linejoin:miter;stroke-opacity:1"
         id="path2801"
         sodipodi:nodetypes="ccsccsccscssccsscccsssscssscsscsssccccccsssccccccsscccccccccsccccccccccccccssccsccsscccsccsccccccccccccccccccccccsssccccsssssssssssssssssccccsssssssccsssssccccccccsssscccccccccccsscccccccsssccccccsssccccccccccccccccccccsccccssscccccssccssscccssssscccsssssccssscccsssssssscccsssssssccssssssssssccssscccscccccsssssssccccssssscccssccsccccssscccccssccssscccsssssscccssssscccscccscccccccccsscsssccsscssssccsscsssccssssssssssccssssssssssssssscccccccc" />
    </g>
  </g>
</svg>
